<?xml version="1.0" standalone="no"?>
<!DOCTYPE svg PUBLIC "-//W3C//DTD SVG 20010904//EN"
 "http://www.w3.org/TR/2001/REC-SVG-20010904/DTD/svg10.dtd">
<svg version="1.0" xmlns="http://www.w3.org/2000/svg"
 width="260.000000pt" height="260.000000pt" viewBox="0 0 260.000000 260.000000"
 preserveAspectRatio="xMidYMid meet">
<metadata>
Created by potrace 1.11, written by Peter Selinger 2001-2013
</metadata>
<g transform="translate(0.000000,260.000000) scale(0.100000,-0.100000)"
fill="#000000" stroke="none">
<path d="M426 2588 c3 -4 2 -8 -3 -9 -35 -3 -114 -34 -107 -42 4 -3 -2 -5 -13
-2 -12 2 -33 -3 -48 -11 -15 -8 -39 -16 -54 -19 -14 -2 -32 -12 -38 -22 -8 -9
-13 -12 -13 -5 0 9 -7 9 -28 -2 -15 -8 -36 -16 -47 -18 -11 -1 -26 -9 -34 -16
-7 -7 -20 -11 -28 -8 -11 5 -13 -7 -12 -54 1 -40 6 -57 13 -53 6 4 5 -1 -3
-10 -11 -14 -11 -20 0 -34 9 -11 10 -14 2 -9 -10 5 -12 -3 -11 -33 1 -26 5
-38 12 -34 8 5 7 2 0 -8 -13 -16 -16 -122 -4 -114 5 3 12 1 15 -5 4 -6 1 -9
-7 -8 -9 2 -13 -13 -15 -55 -1 -42 2 -55 10 -50 9 5 9 3 1 -8 -13 -16 -16
-122 -4 -114 5 3 12 1 15 -5 4 -6 1 -9 -7 -8 -9 2 -13 -13 -15 -55 -1 -42 2
-55 10 -50 9 5 9 3 1 -8 -13 -16 -16 -122 -4 -114 5 3 12 1 15 -5 4 -6 1 -9
-7 -8 -9 2 -13 -13 -15 -55 -1 -42 2 -55 10 -50 9 5 9 3 1 -8 -13 -16 -16
-122 -4 -114 5 3 12 1 15 -5 4 -6 1 -9 -7 -8 -9 2 -13 -13 -15 -55 -1 -42 2
-55 10 -50 9 5 9 3 1 -8 -13 -16 -16 -122 -4 -114 5 3 12 1 15 -5 4 -6 1 -9
-7 -8 -9 2 -13 -13 -15 -55 -1 -42 2 -55 10 -50 9 5 9 3 1 -8 -13 -16 -16
-122 -4 -114 5 3 12 1 15 -5 4 -6 1 -9 -7 -8 -9 2 -13 -13 -15 -55 -1 -42 2
-55 10 -50 9 5 9 3 1 -8 -16 -19 -16 -121 0 -112 6 4 5 -1 -2 -10 -10 -12 -11
-21 -3 -34 6 -11 11 -13 11 -5 0 10 4 9 16 -2 8 -9 20 -14 25 -11 5 4 9 2 9
-3 0 -4 23 -15 50 -22 28 -7 50 -18 50 -22 0 -5 4 -7 9 -3 5 3 12 1 16 -4 3
-6 12 -8 19 -5 7 3 21 -2 29 -11 9 -8 20 -14 24 -13 4 1 23 -3 41 -9 18 -7 34
-11 36 -10 2 1 14 -7 27 -18 12 -11 19 -14 15 -7 -6 10 -4 11 10 4 11 -5 33
-15 49 -22 17 -7 38 -16 47 -21 10 -5 25 -9 35 -9 9 0 25 -8 36 -17 15 -13 18
-14 12 -3 -8 13 -6 13 8 1 9 -7 23 -11 32 -8 8 4 17 1 21 -5 5 -7 2 -8 -6 -3
-9 6 -11 4 -6 -4 5 -7 14 -10 22 -7 8 3 14 2 14 -2 0 -4 10 -8 22 -9 11 -1 25
-8 29 -15 5 -7 9 -9 9 -4 0 5 8 2 17 -5 15 -12 16 -12 8 1 -6 11 -3 10 12 -3
11 -9 27 -17 35 -17 9 0 28 -6 43 -14 15 -8 34 -12 41 -9 8 3 14 0 14 -6 0 -6
9 -11 20 -11 11 0 20 -4 20 -8 0 -5 7 -9 15 -10 8 -1 22 -3 30 -4 8 -1 15 -5
15 -10 0 -5 9 -4 21 2 14 8 17 15 11 23 -5 7 -8 19 -7 27 6 34 11 45 20 52 6
5 3 8 -6 8 -20 0 -18 38 2 51 12 7 11 9 -2 9 -12 0 -15 9 -14 34 2 19 5 39 9
44 3 6 2 13 -3 17 -13 8 -3 65 14 77 6 5 3 8 -6 8 -20 0 -18 38 2 51 11 7 10
9 -5 9 -15 0 -16 3 -7 14 9 10 9 16 1 21 -7 5 -8 11 -1 19 6 7 6 18 1 25 -10
18 -1 43 13 34 6 -4 7 -1 1 8 -16 26 -24 88 -13 95 5 3 5 13 0 22 -10 21 -3
44 11 36 7 -5 8 -2 2 7 -23 37 -22 114 1 131 6 5 3 8 -6 8 -20 0 -18 38 2 51
12 7 11 9 -2 9 -12 0 -15 9 -14 34 2 19 5 39 9 44 3 6 2 13 -3 17 -13 8 -3 65
14 77 6 5 3 8 -6 8 -20 0 -18 38 2 51 12 7 11 9 -2 9 -12 0 -15 9 -14 34 2 19
5 39 9 44 3 6 2 13 -3 17 -13 8 -3 65 14 77 6 5 3 8 -6 8 -20 0 -18 38 2 51
11 7 10 9 -5 9 -15 0 -16 3 -7 14 9 10 9 16 1 21 -7 5 -8 11 -1 19 6 7 6 18 1
25 -10 18 -1 43 13 34 6 -4 7 -1 1 8 -16 26 -24 88 -13 95 5 3 5 13 0 22 -10
21 -3 44 11 36 7 -5 8 -2 2 7 -23 37 -22 114 1 131 6 5 6 8 -1 8 -7 0 -15 7
-18 16 -3 8 -2 12 4 9 6 -3 10 -1 10 4 0 10 -14 13 -36 10 -4 0 -10 5 -15 12
-7 12 -25 19 -56 21 -7 1 -13 4 -13 8 0 4 -6 7 -12 7 -7 1 -37 11 -65 22 -29
12 -53 18 -53 13 0 -4 -4 -2 -8 3 -7 10 -84 37 -98 35 -4 -1 -10 4 -14 11 -5
7 -16 13 -27 14 -20 1 -115 36 -123 44 -3 4 -16 8 -30 10 -14 1 -28 8 -32 15
-4 6 -8 7 -8 1 0 -5 -5 -3 -10 5 -7 11 -10 12 -10 2 0 -10 -4 -10 -16 2 -8 9
-26 16 -39 16 -13 0 -27 5 -30 10 -3 6 -15 10 -26 10 -10 0 -19 5 -19 11 0 6
-6 9 -14 6 -8 -3 -17 -3 -21 1 -4 4 -10 7 -13 7 -4 1 -18 7 -32 15 -14 7 -27
13 -30 13 -17 0 -40 11 -40 19 0 5 5 6 10 3 6 -3 10 -1 10 4 0 6 3 10 8 10 19
-3 33 2 27 11 -3 6 1 7 10 4 8 -4 21 -1 29 5 7 6 16 8 19 4 4 -3 7 -1 7 6 0 7
5 9 10 6 6 -4 22 0 35 9 13 9 36 16 50 16 17 0 24 4 19 12 -5 8 -2 9 9 5 10
-3 17 -3 17 1 0 12 43 12 57 0 10 -8 13 -7 13 3 0 7 11 3 27 -12 14 -13 23
-17 19 -9 -4 8 0 6 9 -5 9 -11 18 -19 21 -17 9 7 64 -10 64 -19 0 -5 3 -8 8
-7 6 3 32 -6 105 -36 15 -6 27 -15 27 -19 0 -5 5 -5 10 -2 6 3 10 1 10 -4 0
-6 3 -10 8 -9 14 4 52 -13 52 -23 0 -6 4 -8 9 -4 5 3 12 1 16 -5 4 -6 11 -8
16 -5 5 4 9 1 9 -4 0 -6 7 -11 15 -11 8 0 15 -5 15 -11 0 -5 4 -8 9 -4 5 3 16
-2 24 -10 9 -8 20 -15 26 -15 6 0 11 -5 11 -11 0 -5 4 -8 9 -4 5 3 16 -2 24
-10 9 -8 20 -15 25 -15 8 0 23 -11 70 -50 6 -6 12 -8 12 -5 0 3 14 -8 31 -25
17 -16 36 -27 42 -23 5 3 8 2 5 -3 -3 -5 4 -18 16 -29 16 -16 33 -20 76 -19
64 1 112 13 105 24 -3 5 4 11 15 15 11 4 18 11 15 16 -4 5 0 9 8 9 8 0 18 7
21 16 3 8 10 12 16 9 6 -3 13 1 16 9 3 9 12 16 20 16 8 0 14 4 14 9 0 5 11 12
25 15 14 4 25 11 25 16 0 6 7 10 15 10 8 0 24 9 35 20 11 11 20 17 20 14 0 -4
7 -1 15 6 8 7 15 9 15 4 0 -5 5 -1 11 9 5 9 18 17 28 17 9 0 26 7 37 15 10 8
26 15 35 15 9 0 20 7 23 16 3 8 10 13 15 10 10 -7 71 22 83 39 4 6 8 7 8 3 0
-4 29 7 65 23 35 17 70 27 76 23 7 -4 9 -3 5 4 -7 11 29 28 52 24 6 -2 12 2
12 8 0 6 4 8 10 5 6 -3 10 -2 10 3 0 14 64 8 77 -8 8 -10 12 -11 13 -3 0 12
61 -14 68 -30 2 -4 8 -4 13 -1 6 3 21 -2 36 -11 14 -9 23 -12 19 -6 -4 5 6 4
20 -4 15 -8 31 -12 36 -9 4 3 8 1 8 -4 0 -5 10 -13 23 -17 21 -6 21 -7 -8 -20
-16 -7 -33 -11 -37 -8 -5 2 -8 -1 -8 -8 0 -7 -3 -9 -7 -6 -3 4 -15 -1 -26 -10
-11 -10 -17 -12 -13 -5 4 6 2 12 -3 12 -6 0 -11 -4 -11 -10 0 -5 -8 -10 -18
-10 -10 0 -28 -7 -40 -16 -12 -8 -27 -12 -33 -9 -6 4 -17 -1 -25 -11 -9 -11
-12 -13 -9 -5 5 9 -1 8 -19 -4 -14 -10 -26 -14 -26 -9 0 4 -5 3 -12 -4 -7 -7
-20 -12 -30 -12 -10 0 -18 -4 -18 -9 0 -5 -10 -7 -22 -3 -15 4 -19 2 -13 -8 6
-10 0 -12 -23 -8 -17 2 -29 2 -28 -1 6 -9 -18 -26 -34 -26 -8 1 -24 -3 -35 -9
-11 -5 -26 -11 -34 -12 -8 -2 -18 -9 -22 -16 -7 -10 -9 -10 -9 2 0 12 -2 13
-9 1 -5 -7 -14 -10 -20 -7 -6 4 -11 2 -11 -4 0 -6 -4 -8 -10 -5 -5 3 -10 1
-10 -4 0 -6 -10 -11 -22 -11 -12 0 -30 -8 -41 -17 -15 -13 -18 -14 -12 -3 7
12 6 13 -7 3 -8 -7 -18 -10 -21 -6 -4 3 -7 1 -7 -6 0 -7 -5 -9 -10 -6 -5 3
-10 1 -10 -4 0 -6 -3 -10 -7 -9 -16 4 -73 -14 -73 -23 0 -5 -6 -8 -12 -6 -7 1
-12 -6 -12 -15 1 -10 -4 -14 -12 -11 -9 3 -11 -2 -7 -16 3 -12 10 -18 17 -14
8 5 8 3 -1 -8 -14 -17 -14 -21 -3 -60 7 -25 7 -29 -4 -20 -11 9 -12 6 -8 -14
2 -14 9 -22 15 -18 6 4 7 1 1 -8 -11 -18 -12 -28 -2 -62 6 -23 5 -27 -6 -18
-11 9 -12 6 -8 -14 2 -14 9 -22 15 -18 6 4 7 1 1 -8 -12 -19 -12 -30 -1 -53 5
-10 5 -16 0 -13 -4 3 -8 -161 -8 -363 0 -243 3 -366 10 -362 6 3 5 -1 -2 -9
-14 -17 -14 -21 -3 -60 7 -25 7 -29 -4 -20 -11 9 -12 6 -8 -14 2 -15 9 -22 16
-18 8 5 8 3 -1 -8 -14 -17 -14 -21 -3 -60 7 -25 7 -29 -4 -20 -11 9 -12 6 -8
-14 2 -15 9 -22 16 -18 8 5 8 3 -1 -8 -14 -17 -14 -21 -3 -60 7 -25 7 -29 -4
-20 -11 9 -12 6 -8 -14 2 -15 9 -22 16 -18 8 5 8 3 -1 -8 -14 -17 -14 -21 -3
-60 7 -25 7 -29 -4 -20 -11 9 -12 6 -8 -14 2 -15 9 -22 16 -18 8 5 8 3 -1 -8
-14 -17 -14 -28 -1 -53 5 -10 6 -16 1 -13 -5 3 -8 -39 -8 -93 l0 -98 25 5 c13
2 30 9 37 15 7 6 13 7 13 3 0 -4 6 -2 13 4 8 6 17 8 20 4 4 -3 7 -1 7 6 0 7 5
9 10 6 6 -3 10 -2 10 4 0 5 11 8 25 7 13 -2 22 1 19 5 -5 8 10 13 29 10 4 0 7
3 7 9 0 5 6 7 14 4 7 -3 20 1 27 8 13 12 29 17 67 20 6 1 12 6 12 11 0 6 3 7
7 4 3 -4 11 -2 18 3 6 5 20 11 31 13 10 1 25 6 32 10 6 5 12 5 12 0 0 -4 4 -1
10 7 5 8 20 15 34 16 14 0 31 6 39 12 8 7 17 9 20 5 4 -3 7 -1 7 6 0 7 4 10 9
7 13 -9 42 4 35 15 -3 6 6 8 20 5 14 -3 26 0 26 5 0 6 5 7 10 4 6 -3 10 -2 10
2 0 5 10 9 22 10 11 1 24 6 27 10 3 4 15 10 26 11 11 2 34 11 52 19 18 8 36
12 41 9 6 -3 13 1 16 10 3 8 10 13 15 9 5 -3 12 -1 16 5 4 6 11 7 17 4 6 -4
13 -2 17 4 4 7 16 13 26 15 11 2 31 9 45 14 14 6 28 9 33 6 4 -2 6 411 5 919
-2 532 -7 922 -12 920 -5 -2 -12 1 -16 7 -6 11 -38 21 -67 23 -7 1 -13 5 -13
10 0 5 -4 6 -10 3 -5 -3 -10 -1 -10 5 0 7 -6 10 -14 7 -8 -3 -20 0 -26 8 -6 8
-17 12 -25 9 -7 -3 -16 0 -20 5 -3 6 -11 9 -16 6 -5 -4 -9 -1 -9 6 0 6 -8 9
-20 6 -11 -3 -23 1 -28 8 -7 14 -10 15 -41 15 -11 0 -26 7 -35 15 -8 8 -22 12
-30 9 -11 -4 -16 0 -17 12 0 12 -3 14 -6 6 -4 -10 -8 -10 -21 0 -12 10 -14 10
-8 1 6 -12 -5 -18 -26 -14 -5 0 -8 -3 -8 -9 0 -5 -16 -12 -35 -16 -19 -3 -35
-11 -35 -16 0 -6 -9 -8 -20 -5 -11 3 -20 2 -20 -2 0 -4 -16 -14 -35 -23 -20
-9 -32 -11 -29 -4 3 6 -1 3 -9 -6 -8 -10 -17 -15 -20 -11 -4 3 -7 1 -7 -6 0
-7 -5 -9 -10 -6 -6 4 -18 1 -26 -6 -9 -7 -23 -14 -32 -15 -8 -2 -18 -8 -22
-14 -4 -7 -9 -10 -11 -8 -7 5 -89 -34 -89 -43 0 -4 -9 -6 -20 -4 -11 2 -24 -3
-29 -13 -5 -9 -13 -14 -16 -10 -4 4 -16 -2 -28 -12 -11 -11 -23 -17 -27 -15
-5 3 -11 -2 -14 -11 -3 -8 -10 -13 -15 -10 -5 3 -14 -1 -21 -9 -7 -8 -16 -13
-20 -10 -4 3 -10 -2 -14 -10 -3 -8 -13 -15 -23 -15 -10 0 -24 -9 -31 -20 -7
-12 -17 -18 -22 -15 -6 3 -10 1 -10 -5 0 -6 -8 -14 -17 -17 -26 -10 -53 -36
-47 -45 3 -4 -2 -8 -10 -8 -9 0 -16 -4 -16 -10 0 -5 -9 -14 -20 -20 -15 -8
-24 -6 -39 9 -11 11 -22 17 -25 14 -3 -4 -6 0 -6 9 0 8 -12 20 -26 26 -14 7
-22 17 -19 22 6 9 -8 14 -28 11 -4 -1 -10 6 -13 14 -3 8 -10 12 -15 9 -5 -3
-9 2 -9 10 0 10 -6 13 -15 10 -8 -4 -15 -2 -15 3 0 6 -18 18 -40 29 -22 10
-40 22 -40 27 0 4 -9 7 -20 7 -11 0 -20 4 -20 9 0 5 -16 15 -34 22 -19 7 -32
17 -29 22 4 6 -3 8 -15 5 -12 -4 -22 -3 -22 2 0 7 -28 19 -55 24 -5 1 -9 7 -8
13 2 7 -6 10 -17 8 -11 -2 -20 0 -20 6 0 5 -9 9 -20 9 -11 0 -20 5 -20 10 0 6
-9 10 -21 10 -11 0 -17 4 -14 10 3 5 0 7 -8 4 -8 -3 -21 2 -30 10 -8 8 -17 12
-21 9 -3 -3 -13 0 -23 8 -15 12 -16 12 -9 -1 4 -8 1 -7 -8 4 -8 10 -20 15 -25
11 -6 -3 -14 1 -17 9 -3 9 -10 16 -16 16 -5 0 -6 -6 -3 -12 4 -7 0 -5 -8 4 -8
10 -17 15 -21 11 -4 -4 -10 -2 -15 5 -4 6 -19 13 -34 14 -15 1 -26 7 -23 13 2
6 -4 11 -14 11 -10 0 -16 -4 -14 -8z"/>
<path d="M1273 1999 c-18 -3 -33 -5 -33 -3 0 12 -52 -48 -55 -63 -1 -10 -9
-17 -16 -15 -9 1 -8 -2 3 -11 15 -12 15 -14 0 -25 -9 -7 -11 -10 -3 -6 10 5
13 3 8 -9 -4 -11 3 -18 23 -26 25 -8 28 -7 22 7 -6 16 -4 16 20 0 19 -13 29
-15 34 -6 4 7 3 8 -4 4 -8 -5 -10 -1 -5 9 4 12 8 13 13 4 5 -6 17 -9 29 -6 12
3 19 1 16 -3 -3 -5 -1 -11 5 -15 5 -3 10 1 10 10 0 12 4 14 19 5 14 -7 21 -6
24 3 4 9 6 9 6 0 1 -7 8 -10 16 -7 8 4 15 1 15 -5 0 -6 -7 -11 -16 -11 -10 0
-14 -6 -10 -15 3 -8 2 -15 -2 -15 -4 0 -7 -20 -7 -45 0 -25 4 -45 8 -45 5 0 5
-5 1 -12 -10 -17 -11 -68 0 -68 5 0 3 -7 -4 -15 -10 -12 -16 -13 -26 -4 -10 8
-14 8 -14 1 0 -7 -7 -9 -17 -5 -12 5 -15 2 -10 -10 4 -10 1 -17 -6 -17 -7 0
-8 -3 -2 -8 13 -9 18 -32 7 -32 -10 0 -9 -36 1 -46 4 -4 2 -13 -4 -21 -6 -7
-7 -13 -2 -13 5 0 9 -9 9 -20 0 -11 -3 -20 -6 -20 -9 0 -6 -38 3 -46 4 -4 2
-13 -4 -21 -8 -9 -8 -13 0 -13 7 0 8 -8 1 -25 -6 -16 -6 -26 1 -31 7 -4 6 -10
-1 -19 -8 -10 -7 -14 2 -18 10 -4 10 -7 -1 -15 -9 -7 -10 -12 -2 -16 6 -4 9
-12 5 -17 -9 -15 -12 -59 -5 -59 4 0 7 -9 7 -20 0 -11 -3 -20 -6 -20 -9 0 -6
-38 3 -46 4 -4 2 -13 -4 -21 -6 -7 -7 -13 -2 -13 5 0 9 -9 9 -20 0 -11 -3 -20
-6 -20 -9 0 -6 -38 3 -46 4 -4 2 -13 -4 -21 -6 -7 -7 -13 -2 -13 5 0 9 -9 9
-20 0 -11 -3 -20 -6 -20 -9 0 -6 -38 3 -46 4 -4 2 -13 -4 -21 -6 -7 -7 -13 -2
-13 5 0 9 -9 9 -20 0 -11 -3 -20 -6 -20 -9 0 -6 -38 3 -46 4 -4 2 -13 -4 -21
-6 -7 -7 -13 -2 -13 5 0 9 -9 9 -20 0 -11 -3 -20 -6 -20 -9 0 -6 -38 3 -46 4
-4 2 -13 -4 -21 -6 -7 -7 -13 -2 -13 5 0 9 -9 9 -20 0 -11 -3 -20 -6 -20 -9 0
-6 -38 3 -46 4 -4 2 -13 -4 -21 -8 -8 -8 -13 -1 -13 11 0 11 -18 -1 -37 -8
-12 -2 -17 16 -14 4 0 7 -3 7 -9 0 -6 9 -6 25 0 14 5 25 6 25 2 0 -12 40 -9
41 3 0 5 2 48 2 95 1 47 6 91 11 99 6 10 6 12 -2 7 -8 -5 -11 3 -8 24 2 17 -1
33 -5 36 -5 3 -6 10 -3 16 10 15 11 99 2 104 -4 3 -5 13 0 22 4 9 7 85 7 169
-1 106 2 150 9 146 6 -4 3 3 -7 14 -9 11 -14 22 -11 26 9 9 11 98 2 103 -4 3
-4 13 0 22 4 9 7 49 7 89 -1 50 2 70 9 66 6 -4 3 3 -7 14 -9 11 -14 22 -11 26
10 9 11 98 2 103 -5 3 -6 10 -3 15 4 5 8 18 10 29 3 17 1 19 -15 10 -21 -11
-38 4 -19 16 8 5 9 3 4 -6 -6 -9 -4 -11 4 -5 9 5 10 10 2 18 -6 6 -11 16 -11
22 0 5 4 3 10 -5 5 -8 11 -12 14 -9 10 10 13 54 5 82 -4 16 -4 25 1 22 6 -4 7
12 3 37 -3 24 -6 50 -6 58 0 8 -4 20 -8 26 -6 7 -4 16 4 23 16 13 14 64 -2 69
-6 2 -11 10 -11 18 0 8 -3 13 -7 13 -21 -3 -33 2 -27 13 4 7 3 8 -4 4 -7 -4
-18 -4 -24 0 -17 11 -37 11 -75 3z"/>
<path d="M1425 1870 c-3 -5 -1 -10 4 -10 6 0 11 5 11 10 0 6 -2 10 -4 10 -3 0
-8 -4 -11 -10z"/>
<path d="M1284 1828 c-5 -7 -2 -8 6 -3 9 5 11 4 6 -3 -4 -7 -14 -12 -21 -12
-11 0 -12 -6 -5 -25 6 -16 6 -26 -1 -31 -6 -4 -5 -11 3 -22 8 -9 8 -13 2 -9
-8 5 -11 -4 -9 -31 2 -20 4 -41 4 -46 1 -4 8 -6 16 -3 8 4 17 1 21 -5 5 -7 2
-8 -6 -3 -9 6 -11 4 -5 -4 6 -10 11 -10 22 2 16 16 27 150 11 141 -4 -3 -4 6
2 20 8 21 7 24 -7 19 -10 -4 -14 -2 -10 4 4 6 0 13 -8 17 -8 3 -17 0 -21 -6z"/>
<path d="M1170 1815 c-5 -7 -7 -15 -3 -19 4 -3 6 -25 6 -49 -1 -23 3 -47 9
-54 6 -7 5 -14 -3 -19 -8 -5 -9 -3 -4 6 5 8 4 11 -3 6 -13 -8 -5 -36 10 -36 6
0 7 -8 4 -17 -6 -16 -6 -16 12 0 14 13 18 30 17 74 -1 32 3 66 8 77 6 13 6 16
-2 12 -7 -4 -11 1 -11 12 0 21 -25 25 -40 7z"/>
<path d="M1193 1616 c-13 -6 -23 -14 -23 -19 0 -4 6 -5 13 -1 10 6 10 4 0 -7
-15 -15 -17 -43 -3 -34 6 3 7 -1 4 -9 -3 -9 -11 -13 -18 -10 -6 3 -3 -1 7 -9
15 -12 15 -16 3 -20 -11 -4 -13 -13 -8 -34 4 -15 7 -45 5 -65 -1 -21 2 -40 7
-43 13 -8 0 -36 -14 -28 -6 3 -3 -3 7 -14 14 -16 15 -23 6 -29 -8 -5 -10 -3
-4 6 5 8 4 11 -3 6 -6 -4 -8 -17 -3 -34 4 -15 6 -44 4 -64 -1 -21 2 -40 7 -43
13 -8 0 -36 -14 -28 -6 3 -3 -3 7 -14 14 -16 15 -23 6 -29 -8 -5 -10 -3 -4 6
5 8 4 11 -3 6 -6 -4 -9 -13 -6 -21 4 -8 10 -12 15 -9 5 3 6 -2 3 -10 -3 -9
-11 -13 -18 -10 -6 3 -3 -1 7 -9 15 -12 15 -16 3 -20 -11 -4 -13 -13 -8 -34 4
-15 7 -45 5 -65 -1 -21 2 -40 7 -43 13 -8 0 -36 -14 -28 -6 3 -3 -3 7 -14 14
-16 15 -23 6 -29 -8 -5 -10 -3 -4 6 5 8 4 11 -3 6 -6 -4 -8 -17 -3 -34 4 -15
6 -44 4 -64 -1 -21 2 -40 7 -43 13 -8 0 -36 -14 -28 -6 3 -3 -3 7 -14 14 -16
15 -23 6 -29 -8 -5 -10 -3 -4 6 5 8 4 11 -3 6 -6 -4 -9 -13 -6 -21 4 -8 10
-12 15 -9 5 3 6 -2 3 -10 -3 -9 -11 -13 -18 -10 -6 3 -3 -1 7 -9 15 -13 15
-15 2 -20 -8 -4 -12 -12 -10 -19 11 -28 11 -88 1 -89 -6 0 -2 -4 9 -9 11 -5
15 -9 9 -9 -13 -1 -15 -31 -2 -31 5 0 6 -5 3 -10 -4 -6 -12 -7 -18 -4 -8 5 -7
2 1 -7 15 -16 92 -19 108 -4 7 7 10 207 10 627 0 586 -1 617 -18 621 -11 3
-18 0 -18 -10 0 -12 -4 -11 -17 4 -15 16 -22 18 -40 9z"/>
<path d="M1194 327 c-12 -7 -11 -14 5 -45 10 -20 17 -45 16 -55 -2 -9 1 -15 6
-11 8 4 14 -17 10 -38 0 -5 4 -8 10 -8 5 0 7 -4 4 -10 -3 -5 -1 -10 5 -10 7 0
10 -6 7 -13 -3 -9 4 -13 27 -12 17 1 37 -4 45 -9 11 -8 13 -8 7 2 -4 7 -1 12
9 12 9 0 13 5 10 10 -3 6 -1 10 4 10 6 0 10 3 10 8 -1 4 0 10 1 15 1 4 3 10 5
15 1 4 5 21 10 37 4 17 11 32 15 35 4 3 11 20 15 38 5 23 3 32 -7 33 -82 4
-202 2 -214 -4z"/>
<path d="M1273 95 c-3 -10 0 -20 6 -25 7 -4 12 -10 12 -14 -1 -3 -1 -15 -1
-27 0 -18 2 -19 15 -5 8 8 15 22 15 30 0 9 5 16 11 16 16 0 5 25 -12 25 -8 0
-20 4 -27 8 -7 5 -15 2 -19 -8z"/>
</g>
</svg>
